<?xml version="1.0" encoding="UTF-8"?>
<svg width="256px" height="256px" viewBox="0 0 256 256" version="1.1" xmlns="http://www.w3.org/2000/svg" xmlns:xlink="http://www.w3.org/1999/xlink">
    <title>favicon</title>
    <g id="页面-1" stroke="none" stroke-width="1" fill="none" fill-rule="evenodd">
        <g id="favicon" fill="#6E6E6E" fill-rule="nonzero">
            <path d="M128,0 C198.692448,0 256,57.307552 256,128 C256,198.692448 198.692448,256 128,256 C57.307552,256 0,198.692448 0,128 C0,57.307552 57.307552,0 128,0 Z M71.8551736,58.5470852 C65.1393323,58.5470852 59.6950673,69.8544049 59.6950673,83.8026906 C59.6950673,97.7509762 65.1393323,109.058296 71.8551736,109.058296 C78.5710148,109.058296 84.0152799,97.7509762 84.0152799,83.8026906 C84.0152799,69.8544049 78.5710148,58.5470852 71.8551736,58.5470852 Z M184.612523,58.5470852 C177.896682,58.5470852 172.452417,69.8544049 172.452417,83.8026906 C172.452417,97.7509762 177.896682,109.058296 184.612523,109.058296 C191.328364,109.058296 196.772629,97.7509762 196.772629,83.8026906 C196.772629,69.8544049 191.328364,58.5470852 184.612523,58.5470852 Z" id="形状结合"></path>
        </g>
    </g>
</svg>